<?xml version="1.0" standalone="no"?>
<!DOCTYPE svg PUBLIC "-//W3C//DTD SVG 1.1//EN" "http://www.w3.org/Graphics/SVG/1.1/DTD/svg11.dtd">
<svg xmlns:xlink="http://www.w3.org/1999/xlink" xmlns="http://www.w3.org/2000/svg" version="1.1" class="highcharts-root" style="font-family:&quot;lucida grande&quot;, &quot;lucida sans unicode&quot;, arial, helvetica, sans-serif;font-size:12px;" width="600" height="400" viewBox="0 0 600 400">
  <desc>Created with Highcharts 5.0.14</desc>
  <defs>
    <clipPath id="highcharts-rzxk9p5-11">
      <rect x="0" y="0" width="209" height="531" fill="none"/>
    </clipPath>
  </defs>
  <rect fill="none" class="highcharts-background" x="0" y="0" width="600" height="400" rx="0" ry="0"/>
  <rect fill="none" class="highcharts-plot-background" x="59" y="82" width="531" height="209"/>
  <g class="highcharts-grid highcharts-xaxis-grid ">
    <path fill="none" class="highcharts-grid-line" d="M 59 112.5 L 590 112.5" opacity="1"/>
    <path fill="none" class="highcharts-grid-line" d="M 59 142.5 L 590 142.5" opacity="1"/>
    <path fill="none" class="highcharts-grid-line" d="M 59 172.5 L 590 172.5" opacity="1"/>
    <path fill="none" class="highcharts-grid-line" d="M 59 201.5 L 590 201.5" opacity="1"/>
    <path fill="none" class="highcharts-grid-line" d="M 59 231.5 L 590 231.5" opacity="1"/>
    <path fill="none" class="highcharts-grid-line" d="M 59 261.5 L 590 261.5" opacity="1"/>
    <path fill="none" class="highcharts-grid-line" d="M 59 291.5 L 590 291.5" opacity="1"/>
    <path fill="none" class="highcharts-grid-line" d="M 59 82.5 L 590 82.5" opacity="1"/>
  </g>
  <g class="highcharts-grid highcharts-yaxis-grid ">
    <path fill="none" stroke="#f2f2f2" stroke-width="1" class="highcharts-minor-grid-line" d="M 58.5 82 L 58.5 291" opacity="1"/>
    <path fill="none" stroke="#f2f2f2" stroke-width="1" class="highcharts-minor-grid-line" d="M 67.5 82 L 67.5 291" opacity="1"/>
    <path fill="none" stroke="#f2f2f2" stroke-width="1" class="highcharts-minor-grid-line" d="M 76.5 82 L 76.5 291" opacity="1"/>
    <path fill="none" stroke="#f2f2f2" stroke-width="1" class="highcharts-minor-grid-line" d="M 85.5 82 L 85.5 291" opacity="1"/>
    <path fill="none" stroke="#f2f2f2" stroke-width="1" class="highcharts-minor-grid-line" d="M 93.5 82 L 93.5 291" opacity="1"/>
    <path fill="none" stroke="#f2f2f2" stroke-width="1" class="highcharts-minor-grid-line" d="M 102.5 82 L 102.5 291" opacity="1"/>
    <path fill="none" stroke="#f2f2f2" stroke-width="1" class="highcharts-minor-grid-line" d="M 111.5 82 L 111.5 291" opacity="1"/>
    <path fill="none" stroke="#f2f2f2" stroke-width="1" class="highcharts-minor-grid-line" d="M 120.5 82 L 120.5 291" opacity="1"/>
    <path fill="none" stroke="#f2f2f2" stroke-width="1" class="highcharts-minor-grid-line" d="M 129.5 82 L 129.5 291" opacity="1"/>
    <path fill="none" stroke="#f2f2f2" stroke-width="1" class="highcharts-minor-grid-line" d="M 138.5 82 L 138.5 291" opacity="1"/>
    <path fill="none" stroke="#f2f2f2" stroke-width="1" class="highcharts-minor-grid-line" d="M 147.5 82 L 147.5 291" opacity="1"/>
    <path fill="none" stroke="#f2f2f2" stroke-width="1" class="highcharts-minor-grid-line" d="M 155.5 82 L 155.5 291" opacity="1"/>
    <path fill="none" stroke="#f2f2f2" stroke-width="1" class="highcharts-minor-grid-line" d="M 164.5 82 L 164.5 291" opacity="1"/>
    <path fill="none" stroke="#f2f2f2" stroke-width="1" class="highcharts-minor-grid-line" d="M 173.5 82 L 173.5 291" opacity="1"/>
    <path fill="none" stroke="#f2f2f2" stroke-width="1" class="highcharts-minor-grid-line" d="M 182.5 82 L 182.5 291" opacity="1"/>
    <path fill="none" stroke="#f2f2f2" stroke-width="1" class="highcharts-minor-grid-line" d="M 191.5 82 L 191.5 291" opacity="1"/>
    <path fill="none" stroke="#f2f2f2" stroke-width="1" class="highcharts-minor-grid-line" d="M 200.5 82 L 200.5 291" opacity="1"/>
    <path fill="none" stroke="#f2f2f2" stroke-width="1" class="highcharts-minor-grid-line" d="M 208.5 82 L 208.5 291" opacity="1"/>
    <path fill="none" stroke="#f2f2f2" stroke-width="1" class="highcharts-minor-grid-line" d="M 217.5 82 L 217.5 291" opacity="1"/>
    <path fill="none" stroke="#f2f2f2" stroke-width="1" class="highcharts-minor-grid-line" d="M 226.5 82 L 226.5 291" opacity="1"/>
    <path fill="none" stroke="#f2f2f2" stroke-width="1" class="highcharts-minor-grid-line" d="M 235.5 82 L 235.5 291" opacity="1"/>
    <path fill="none" stroke="#f2f2f2" stroke-width="1" class="highcharts-minor-grid-line" d="M 244.5 82 L 244.5 291" opacity="1"/>
    <path fill="none" stroke="#f2f2f2" stroke-width="1" class="highcharts-minor-grid-line" d="M 253.5 82 L 253.5 291" opacity="1"/>
    <path fill="none" stroke="#f2f2f2" stroke-width="1" class="highcharts-minor-grid-line" d="M 262.5 82 L 262.5 291" opacity="1"/>
    <path fill="none" stroke="#f2f2f2" stroke-width="1" class="highcharts-minor-grid-line" d="M 270.5 82 L 270.5 291" opacity="1"/>
    <path fill="none" stroke="#f2f2f2" stroke-width="1" class="highcharts-minor-grid-line" d="M 279.5 82 L 279.5 291" opacity="1"/>
    <path fill="none" stroke="#f2f2f2" stroke-width="1" class="highcharts-minor-grid-line" d="M 288.5 82 L 288.5 291" opacity="1"/>
    <path fill="none" stroke="#f2f2f2" stroke-width="1" class="highcharts-minor-grid-line" d="M 297.5 82 L 297.5 291" opacity="1"/>
    <path fill="none" stroke="#f2f2f2" stroke-width="1" class="highcharts-minor-grid-line" d="M 306.5 82 L 306.5 291" opacity="1"/>
    <path fill="none" stroke="#f2f2f2" stroke-width="1" class="highcharts-minor-grid-line" d="M 315.5 82 L 315.5 291" opacity="1"/>
    <path fill="none" stroke="#f2f2f2" stroke-width="1" class="highcharts-minor-grid-line" d="M 324.5 82 L 324.5 291" opacity="1"/>
    <path fill="none" stroke="#f2f2f2" stroke-width="1" class="highcharts-minor-grid-line" d="M 332.5 82 L 332.5 291" opacity="1"/>
    <path fill="none" stroke="#f2f2f2" stroke-width="1" class="highcharts-minor-grid-line" d="M 341.5 82 L 341.5 291" opacity="1"/>
    <path fill="none" stroke="#f2f2f2" stroke-width="1" class="highcharts-minor-grid-line" d="M 350.5 82 L 350.5 291" opacity="1"/>
    <path fill="none" stroke="#f2f2f2" stroke-width="1" class="highcharts-minor-grid-line" d="M 359.5 82 L 359.5 291" opacity="1"/>
    <path fill="none" stroke="#f2f2f2" stroke-width="1" class="highcharts-minor-grid-line" d="M 368.5 82 L 368.5 291" opacity="1"/>
    <path fill="none" stroke="#f2f2f2" stroke-width="1" class="highcharts-minor-grid-line" d="M 377.5 82 L 377.5 291" opacity="1"/>
    <path fill="none" stroke="#f2f2f2" stroke-width="1" class="highcharts-minor-grid-line" d="M 385.5 82 L 385.5 291" opacity="1"/>
    <path fill="none" stroke="#f2f2f2" stroke-width="1" class="highcharts-minor-grid-line" d="M 394.5 82 L 394.5 291" opacity="1"/>
    <path fill="none" stroke="#f2f2f2" stroke-width="1" class="highcharts-minor-grid-line" d="M 403.5 82 L 403.5 291" opacity="1"/>
    <path fill="none" stroke="#f2f2f2" stroke-width="1" class="highcharts-minor-grid-line" d="M 412.5 82 L 412.5 291" opacity="1"/>
    <path fill="none" stroke="#f2f2f2" stroke-width="1" class="highcharts-minor-grid-line" d="M 421.5 82 L 421.5 291" opacity="1"/>
    <path fill="none" stroke="#f2f2f2" stroke-width="1" class="highcharts-minor-grid-line" d="M 430.5 82 L 430.5 291" opacity="1"/>
    <path fill="none" stroke="#f2f2f2" stroke-width="1" class="highcharts-minor-grid-line" d="M 439.5 82 L 439.5 291" opacity="1"/>
    <path fill="none" stroke="#f2f2f2" stroke-width="1" class="highcharts-minor-grid-line" d="M 447.5 82 L 447.5 291" opacity="1"/>
    <path fill="none" stroke="#f2f2f2" stroke-width="1" class="highcharts-minor-grid-line" d="M 456.5 82 L 456.5 291" opacity="1"/>
    <path fill="none" stroke="#f2f2f2" stroke-width="1" class="highcharts-minor-grid-line" d="M 465.5 82 L 465.5 291" opacity="1"/>
    <path fill="none" stroke="#f2f2f2" stroke-width="1" class="highcharts-minor-grid-line" d="M 474.5 82 L 474.5 291" opacity="1"/>
    <path fill="none" stroke="#f2f2f2" stroke-width="1" class="highcharts-minor-grid-line" d="M 483.5 82 L 483.5 291" opacity="1"/>
    <path fill="none" stroke="#f2f2f2" stroke-width="1" class="highcharts-minor-grid-line" d="M 492.5 82 L 492.5 291" opacity="1"/>
    <path fill="none" stroke="#f2f2f2" stroke-width="1" class="highcharts-minor-grid-line" d="M 501.5 82 L 501.5 291" opacity="1"/>
    <path fill="none" stroke="#f2f2f2" stroke-width="1" class="highcharts-minor-grid-line" d="M 509.5 82 L 509.5 291" opacity="1"/>
    <path fill="none" stroke="#f2f2f2" stroke-width="1" class="highcharts-minor-grid-line" d="M 518.5 82 L 518.5 291" opacity="1"/>
    <path fill="none" stroke="#f2f2f2" stroke-width="1" class="highcharts-minor-grid-line" d="M 527.5 82 L 527.5 291" opacity="1"/>
    <path fill="none" stroke="#f2f2f2" stroke-width="1" class="highcharts-minor-grid-line" d="M 536.5 82 L 536.5 291" opacity="1"/>
    <path fill="none" stroke="#f2f2f2" stroke-width="1" class="highcharts-minor-grid-line" d="M 545.5 82 L 545.5 291" opacity="1"/>
    <path fill="none" stroke="#f2f2f2" stroke-width="1" class="highcharts-minor-grid-line" d="M 554.5 82 L 554.5 291" opacity="1"/>
    <path fill="none" stroke="#f2f2f2" stroke-width="1" class="highcharts-minor-grid-line" d="M 562.5 82 L 562.5 291" opacity="1"/>
    <path fill="none" stroke="#f2f2f2" stroke-width="1" class="highcharts-minor-grid-line" d="M 571.5 82 L 571.5 291" opacity="1"/>
    <path fill="none" stroke="#f2f2f2" stroke-width="1" class="highcharts-minor-grid-line" d="M 580.5 82 L 580.5 291" opacity="1"/>
    <path fill="none" stroke="#f2f2f2" stroke-width="1" class="highcharts-minor-grid-line" d="M 590.5 82 L 590.5 291" opacity="1"/>
    <path fill="none" stroke="#e6e6e6" stroke-width="1" class="highcharts-grid-line" d="M 58.5 82 L 58.5 291" opacity="1"/>
    <path fill="none" stroke="#e6e6e6" stroke-width="1" class="highcharts-grid-line" d="M 102.5 82 L 102.5 291" opacity="1"/>
    <path fill="none" stroke="#e6e6e6" stroke-width="1" class="highcharts-grid-line" d="M 147.5 82 L 147.5 291" opacity="1"/>
    <path fill="none" stroke="#e6e6e6" stroke-width="1" class="highcharts-grid-line" d="M 191.5 82 L 191.5 291" opacity="1"/>
    <path fill="none" stroke="#e6e6e6" stroke-width="1" class="highcharts-grid-line" d="M 235.5 82 L 235.5 291" opacity="1"/>
    <path fill="none" stroke="#e6e6e6" stroke-width="1" class="highcharts-grid-line" d="M 279.5 82 L 279.5 291" opacity="1"/>
    <path fill="none" stroke="#e6e6e6" stroke-width="1" class="highcharts-grid-line" d="M 324.5 82 L 324.5 291" opacity="1"/>
    <path fill="none" stroke="#e6e6e6" stroke-width="1" class="highcharts-grid-line" d="M 368.5 82 L 368.5 291" opacity="1"/>
    <path fill="none" stroke="#e6e6e6" stroke-width="1" class="highcharts-grid-line" d="M 412.5 82 L 412.5 291" opacity="1"/>
    <path fill="none" stroke="#e6e6e6" stroke-width="1" class="highcharts-grid-line" d="M 456.5 82 L 456.5 291" opacity="1"/>
    <path fill="none" stroke="#e6e6e6" stroke-width="1" class="highcharts-grid-line" d="M 501.5 82 L 501.5 291" opacity="1"/>
    <path fill="none" stroke="#e6e6e6" stroke-width="1" class="highcharts-grid-line" d="M 545.5 82 L 545.5 291" opacity="1"/>
    <path fill="none" stroke="#e6e6e6" stroke-width="1" class="highcharts-grid-line" d="M 590.5 82 L 590.5 291" opacity="1"/>
  </g>
  <rect fill="none" class="highcharts-plot-border" x="59" y="82" width="531" height="209"/>
  <g class="highcharts-axis highcharts-xaxis ">
    <path fill="none" class="highcharts-tick" d="M 59 112.5 L 49 112.5" opacity="1"/>
    <path fill="none" class="highcharts-tick" d="M 59 142.5 L 49 142.5" opacity="1"/>
    <path fill="none" class="highcharts-tick" d="M 59 172.5 L 49 172.5" opacity="1"/>
    <path fill="none" class="highcharts-tick" d="M 59 201.5 L 49 201.5" opacity="1"/>
    <path fill="none" class="highcharts-tick" d="M 59 231.5 L 49 231.5" opacity="1"/>
    <path fill="none" class="highcharts-tick" d="M 59 261.5 L 49 261.5" opacity="1"/>
    <path fill="none" class="highcharts-tick" d="M 59 291.5 L 49 291.5" opacity="1"/>
    <path fill="none" class="highcharts-tick" d="M 59 81.5 L 49 81.5" opacity="1"/>
    <path fill="none" class="highcharts-axis-line" d="M 58.5 82 L 58.5 291"/>
  </g>
  <g class="highcharts-axis highcharts-yaxis ">
    <text x="324.5" text-anchor="middle" transform="translate(0,0)" class="highcharts-axis-title" style="color:undefined;" y="329">
      <tspan>Current use of any modern contraceptive method (all women)</tspan>
    </text>
    <path fill="none" class="highcharts-axis-line" d="M 59 291 L 590 291"/>
  </g>
  <g class="highcharts-series-group">
    <g class="highcharts-series highcharts-series-0 highcharts-bar-series highcharts-color-0 " transform="translate(590,291) rotate(90) scale(-1,1) scale(1 1)" clip-path="url(#highcharts-rzxk9p5-11)">
      <rect x="194.5" y="437.5" width="8" height="94" fill="#7cb5ec" stroke="#ffffff" stroke-width="1" class="highcharts-point highcharts-color-0"/>
      <rect x="164.5" y="241.5" width="8" height="290" fill="#7cb5ec" stroke="#ffffff" stroke-width="1" class="highcharts-point highcharts-color-0"/>
      <rect x="134.5" y="163.5" width="8" height="368" fill="#7cb5ec" stroke="#ffffff" stroke-width="1" class="highcharts-point highcharts-color-0"/>
      <rect x="104.5" y="113.5" width="8" height="418" fill="#7cb5ec" stroke="#ffffff" stroke-width="1" class="highcharts-point highcharts-color-0"/>
      <rect x="75.5" y="232.5" width="8" height="299" fill="#7cb5ec" stroke="#ffffff" stroke-width="1" class="highcharts-point highcharts-color-0"/>
      <rect x="45.5" y="232.5" width="8" height="299" fill="#7cb5ec" stroke="#ffffff" stroke-width="1" class="highcharts-point highcharts-color-0"/>
      <rect x="15.5" y="350.5" width="8" height="181" fill="#7cb5ec" stroke="#ffffff" stroke-width="1" class="highcharts-point highcharts-color-0"/>
    </g>
    <g class="highcharts-markers highcharts-series-0 highcharts-bar-series highcharts-color-0 " transform="translate(590,291) rotate(90) scale(-1,1) scale(1 1)" clip-path="none"/>
    <g class="highcharts-series highcharts-series-1 highcharts-bar-series highcharts-color-1 " transform="translate(590,291) rotate(90) scale(-1,1) scale(1 1)" clip-path="url(#highcharts-rzxk9p5-11)">
      <rect x="185.5" y="411.5" width="8" height="120" fill="#434348" stroke="#ffffff" stroke-width="1" class="highcharts-point highcharts-color-1"/>
      <rect x="155.5" y="140.5" width="8" height="391" fill="#434348" stroke="#ffffff" stroke-width="1" class="highcharts-point highcharts-color-1"/>
      <rect x="125.5" y="46.5" width="8" height="485" fill="#434348" stroke="#ffffff" stroke-width="1" class="highcharts-point highcharts-color-1"/>
      <rect x="95.5" y="129.5" width="8" height="402" fill="#434348" stroke="#ffffff" stroke-width="1" class="highcharts-point highcharts-color-1"/>
      <rect x="66.5" y="172.5" width="8" height="359" fill="#434348" stroke="#ffffff" stroke-width="1" class="highcharts-point highcharts-color-1"/>
      <rect x="36.5" y="170.5" width="8" height="361" fill="#434348" stroke="#ffffff" stroke-width="1" class="highcharts-point highcharts-color-1"/>
      <rect x="6.5" y="354.5" width="8" height="177" fill="#434348" stroke="#ffffff" stroke-width="1" class="highcharts-point highcharts-color-1"/>
    </g>
    <g class="highcharts-markers highcharts-series-1 highcharts-bar-series highcharts-color-1 " transform="translate(590,291) rotate(90) scale(-1,1) scale(1 1)" clip-path="none"/>
  </g>
  <text x="300" text-anchor="middle" class="highcharts-title" style="color:undefined;font-size:18px;" y="24">
    <tspan>Current use of any modern contraceptive method (all</tspan>
    <tspan dy="21" x="300">women) by Age for Burkina Faso</tspan>
    <title>Current use of any modern contraceptive method (all women) by Age for Burkina Faso</title>
  </text>
  <text x="300" text-anchor="middle" class="highcharts-subtitle" style="color:undefined;" y="66">
    <tspan>PMA2020</tspan>
  </text>
  <g class="highcharts-data-labels highcharts-series-0 highcharts-bar-series highcharts-color-0 " visibility="visible" transform="translate(59,82) scale(1 1)">
    <g class="highcharts-label highcharts-data-label highcharts-data-label-color-0 " transform="translate(94,-1)">
      <text x="5" style="font-size:11px;font-weight:bold;color:#000000;fill:#000000;" y="16">
        <tspan x="5" y="16" class="highcharts-text-outline" fill="#FFFFFF" stroke="#FFFFFF" stroke-width="2px" stroke-linejoin="round">5.3</tspan>
        <tspan x="5" y="16">5.3</tspan>
      </text>
    </g>
    <g class="highcharts-label highcharts-data-label highcharts-data-label-color-0 " transform="translate(290,29)">
      <text x="5" style="font-size:11px;font-weight:bold;color:#000000;fill:#000000;" y="16">
        <tspan x="5" y="16" class="highcharts-text-outline" fill="#FFFFFF" stroke="#FFFFFF" stroke-width="2px" stroke-linejoin="round">16.4</tspan>
        <tspan x="5" y="16">16.4</tspan>
      </text>
    </g>
    <g class="highcharts-label highcharts-data-label highcharts-data-label-color-0 " transform="translate(368,59)">
      <text x="5" style="font-size:11px;font-weight:bold;color:#000000;fill:#000000;" y="16">
        <tspan x="5" y="16" class="highcharts-text-outline" fill="#FFFFFF" stroke="#FFFFFF" stroke-width="2px" stroke-linejoin="round">20.8</tspan>
        <tspan x="5" y="16">20.8</tspan>
      </text>
    </g>
    <g class="highcharts-label highcharts-data-label highcharts-data-label-color-0 " transform="translate(418,89)">
      <text x="5" style="font-size:11px;font-weight:bold;color:#000000;fill:#000000;" y="16">
        <tspan x="5" y="16" class="highcharts-text-outline" fill="#FFFFFF" stroke="#FFFFFF" stroke-width="2px" stroke-linejoin="round">23.6</tspan>
        <tspan x="5" y="16">23.6</tspan>
      </text>
    </g>
    <g class="highcharts-label highcharts-data-label highcharts-data-label-color-0 " transform="translate(299,118)">
      <text x="5" style="font-size:11px;font-weight:bold;color:#000000;fill:#000000;" y="16">
        <tspan x="5" y="16" class="highcharts-text-outline" fill="#FFFFFF" stroke="#FFFFFF" stroke-width="2px" stroke-linejoin="round">16.9</tspan>
        <tspan x="5" y="16">16.9</tspan>
      </text>
    </g>
    <g class="highcharts-label highcharts-data-label highcharts-data-label-color-0 " transform="translate(299,148)">
      <text x="5" style="font-size:11px;font-weight:bold;color:#000000;fill:#000000;" y="16">
        <tspan x="5" y="16" class="highcharts-text-outline" fill="#FFFFFF" stroke="#FFFFFF" stroke-width="2px" stroke-linejoin="round">16.9</tspan>
        <tspan x="5" y="16">16.9</tspan>
      </text>
    </g>
    <g class="highcharts-label highcharts-data-label highcharts-data-label-color-0 " transform="translate(181,178)">
      <text x="5" style="font-size:11px;font-weight:bold;color:#000000;fill:#000000;" y="16">
        <tspan x="5" y="16" class="highcharts-text-outline" fill="#FFFFFF" stroke="#FFFFFF" stroke-width="2px" stroke-linejoin="round">10.2</tspan>
        <tspan x="5" y="16">10.2</tspan>
      </text>
    </g>
  </g>
  <g class="highcharts-data-labels highcharts-series-1 highcharts-bar-series highcharts-color-1 " visibility="visible" transform="translate(59,82) scale(1 1)">
    <g class="highcharts-label highcharts-data-label highcharts-data-label-color-1 " transform="translate(120,8)">
      <text x="5" style="font-size:11px;font-weight:bold;color:#000000;fill:#000000;" y="16">
        <tspan x="5" y="16" class="highcharts-text-outline" fill="#FFFFFF" stroke="#FFFFFF" stroke-width="2px" stroke-linejoin="round">6.8</tspan>
        <tspan x="5" y="16">6.8</tspan>
      </text>
    </g>
    <g class="highcharts-label highcharts-data-label highcharts-data-label-color-1 " transform="translate(391,38)">
      <text x="5" style="font-size:11px;font-weight:bold;color:#000000;fill:#000000;" y="16">
        <tspan x="5" y="16" class="highcharts-text-outline" fill="#FFFFFF" stroke="#FFFFFF" stroke-width="2px" stroke-linejoin="round">22.1</tspan>
        <tspan x="5" y="16">22.1</tspan>
      </text>
    </g>
    <g class="highcharts-label highcharts-data-label highcharts-data-label-color-1 " transform="translate(485,68)">
      <text x="5" style="font-size:11px;font-weight:bold;color:#000000;fill:#000000;" y="16">
        <tspan x="5" y="16" class="highcharts-text-outline" fill="#FFFFFF" stroke="#FFFFFF" stroke-width="2px" stroke-linejoin="round">27.4</tspan>
        <tspan x="5" y="16">27.4</tspan>
      </text>
    </g>
    <g class="highcharts-label highcharts-data-label highcharts-data-label-color-1 " transform="translate(402,98)" opacity="0" visibility="hidden">
      <text x="5" style="font-size:11px;font-weight:bold;color:#000000;fill:#000000;" y="16">
        <tspan x="5" y="16" class="highcharts-text-outline" fill="#FFFFFF" stroke="#FFFFFF" stroke-width="2px" stroke-linejoin="round">22.7</tspan>
        <tspan x="5" y="16">22.7</tspan>
      </text>
    </g>
    <g class="highcharts-label highcharts-data-label highcharts-data-label-color-1 " transform="translate(359,127)">
      <text x="5" style="font-size:11px;font-weight:bold;color:#000000;fill:#000000;" y="16">
        <tspan x="5" y="16" class="highcharts-text-outline" fill="#FFFFFF" stroke="#FFFFFF" stroke-width="2px" stroke-linejoin="round">20.3</tspan>
        <tspan x="5" y="16">20.3</tspan>
      </text>
    </g>
    <g class="highcharts-label highcharts-data-label highcharts-data-label-color-1 " transform="translate(361,157)">
      <text x="5" style="font-size:11px;font-weight:bold;color:#000000;fill:#000000;" y="16">
        <tspan x="5" y="16" class="highcharts-text-outline" fill="#FFFFFF" stroke="#FFFFFF" stroke-width="2px" stroke-linejoin="round">20.4</tspan>
        <tspan x="5" y="16">20.4</tspan>
      </text>
    </g>
    <g class="highcharts-label highcharts-data-label highcharts-data-label-color-1 " transform="translate(177,187)" opacity="0" visibility="hidden">
      <text x="5" style="font-size:11px;font-weight:bold;color:#000000;fill:#000000;" y="16">
        <tspan x="5" y="16" class="highcharts-text-outline" fill="#FFFFFF" stroke="#FFFFFF" stroke-width="2px" stroke-linejoin="round">10.0</tspan>
        <tspan x="5" y="16">10.0</tspan>
      </text>
    </g>
  </g>
  <g class="highcharts-legend" transform="translate(168,344)">
    <rect fill="none" class="highcharts-legend-box" rx="0" ry="0" x="0" y="0" width="263" height="41" visibility="visible"/>
    <g>
      <g>
        <g class="highcharts-legend-item highcharts-bar-series highcharts-color-0 highcharts-series-0" transform="translate(8,3)">
          <text x="21" style="color:undefined;font-size:12px;font-weight:bold;cursor:pointer;" text-anchor="start" y="15">
            <tspan>Burkina Faso National 2014 Round 1</tspan>
          </text>
          <rect x="2" y="4" width="12" height="12" fill="#7cb5ec" rx="6" ry="6" class="highcharts-point"/>
        </g>
        <g class="highcharts-legend-item highcharts-bar-series highcharts-color-1 highcharts-series-1" transform="translate(8,18)">
          <text x="21" y="15" style="color:undefined;font-size:12px;font-weight:bold;cursor:pointer;" text-anchor="start">
            <tspan>Burkina Faso National 2015 Round 2</tspan>
          </text>
          <rect x="2" y="4" width="12" height="12" fill="#434348" rx="6" ry="6" class="highcharts-point"/>
        </g>
      </g>
    </g>
  </g>
  <g class="highcharts-axis-labels highcharts-xaxis-labels ">
    <text x="44" style="color:#666666;cursor:default;font-size:11px;fill:#666666;" text-anchor="end" transform="translate(0,0)" y="101" opacity="1">
      <tspan>15-19</tspan>
    </text>
    <text x="44" style="color:#666666;cursor:default;font-size:11px;fill:#666666;" text-anchor="end" transform="translate(0,0)" y="131" opacity="1">
      <tspan>20-24</tspan>
    </text>
    <text x="44" style="color:#666666;cursor:default;font-size:11px;fill:#666666;" text-anchor="end" transform="translate(0,0)" y="161" opacity="1">
      <tspan>25-29</tspan>
    </text>
    <text x="44" style="color:#666666;cursor:default;font-size:11px;fill:#666666;" text-anchor="end" transform="translate(0,0)" y="191" opacity="1">
      <tspan>30-34</tspan>
    </text>
    <text x="44" style="color:#666666;cursor:default;font-size:11px;fill:#666666;" text-anchor="end" transform="translate(0,0)" y="221" opacity="1">
      <tspan>35-39</tspan>
    </text>
    <text x="44" style="color:#666666;cursor:default;font-size:11px;fill:#666666;" text-anchor="end" transform="translate(0,0)" y="251" opacity="1">
      <tspan>40-44</tspan>
    </text>
    <text x="44" style="color:#666666;cursor:default;font-size:11px;fill:#666666;" text-anchor="end" transform="translate(0,0)" y="281" opacity="1">
      <tspan>45-49</tspan>
    </text>
  </g>
  <g class="highcharts-axis-labels highcharts-yaxis-labels ">
    <text x="59" style="color:undefined;cursor:default;font-size:11px;" text-anchor="middle" transform="translate(0,0)" y="310" opacity="1">0</text>
    <text x="103.25" style="color:undefined;cursor:default;font-size:11px;" text-anchor="middle" transform="translate(0,0)" y="310" opacity="1">2.5</text>
    <text x="147.5" style="color:undefined;cursor:default;font-size:11px;" text-anchor="middle" transform="translate(0,0)" y="310" opacity="1">5</text>
    <text x="191.75" style="color:undefined;cursor:default;font-size:11px;" text-anchor="middle" transform="translate(0,0)" y="310" opacity="1">7.5</text>
    <text x="236" style="color:undefined;cursor:default;font-size:11px;" text-anchor="middle" transform="translate(0,0)" y="310" opacity="1">10</text>
    <text x="280.25" style="color:undefined;cursor:default;font-size:11px;" text-anchor="middle" transform="translate(0,0)" y="310" opacity="1">12.5</text>
    <text x="324.5" style="color:undefined;cursor:default;font-size:11px;" text-anchor="middle" transform="translate(0,0)" y="310" opacity="1">15</text>
    <text x="368.75" style="color:undefined;cursor:default;font-size:11px;" text-anchor="middle" transform="translate(0,0)" y="310" opacity="1">17.5</text>
    <text x="413" style="color:undefined;cursor:default;font-size:11px;" text-anchor="middle" transform="translate(0,0)" y="310" opacity="1">20</text>
    <text x="457.25" style="color:undefined;cursor:default;font-size:11px;" text-anchor="middle" transform="translate(0,0)" y="310" opacity="1">22.5</text>
    <text x="501.5" style="color:undefined;cursor:default;font-size:11px;" text-anchor="middle" transform="translate(0,0)" y="310" opacity="1">25</text>
    <text x="545.75" style="color:undefined;cursor:default;font-size:11px;" text-anchor="middle" transform="translate(0,0)" y="310" opacity="1">27.5</text>
    <text x="583.046875" style="color:undefined;cursor:default;font-size:11px;" text-anchor="middle" transform="translate(0,0)" y="310" opacity="1">30</text>
  </g>
  <text x="290" class="highcharts-credits" text-anchor="middle" style="cursor:pointer;color:#999999;font-size:9px;fill:#999999;" y="400">
    <tspan>Performance Monitoring and Accountability 2020. Johns Hopkins University;,Burkina Faso National Institute of Statistics and Demography 2018-07-26</tspan>
  </text>
</svg>